<?xml version="1.0" encoding="UTF-8"?>
<svg version="1.1" xmlns="http://www.w3.org/2000/svg" width="3163" height="738">
<path d="M0 0 C0.84433594 0.28149902 1.68867188 0.56299805 2.55859375 0.85302734 C9.05052434 3.11084239 15.07331504 5.87879694 21.125 9.125 C22.03677002 9.6087207 22.94854004 10.09244141 23.88793945 10.59082031 C30.80958908 14.29252167 37.59178433 18.19609631 44.328125 22.22265625 C49.99492611 25.6070649 55.71739049 28.89426985 61.4375 32.1875 C62.54440186 32.82526367 63.65130371 33.46302734 64.79174805 34.12011719 C67.06269493 35.42844936 69.33377354 36.73655291 71.60498047 38.04443359 C77.0716998 41.19332054 82.53574887 44.34683264 88 47.5 C90.16665311 48.7500235 92.33331979 50.00002347 94.5 51.25 C98.83333333 53.75 103.16666667 56.25 107.5 58.75 C108.57282227 59.36891113 109.64564453 59.98782227 110.75097656 60.62548828 C112.91447476 61.87371034 115.07788643 63.12208239 117.24121094 64.37060547 C122.70565017 67.52405256 128.17163645 70.67476096 133.640625 73.8203125 C139.05299788 76.93426954 144.46106548 80.05555334 149.86474609 83.18457031 C151.95281141 84.3936385 154.0416779 85.60132412 156.13134766 86.80761719 C159.11258197 88.53132815 162.08825521 90.26426281 165.0625 92 C165.93616211 92.50354004 166.80982422 93.00708008 167.70996094 93.52587891 C191.87487192 107.70268929 208.97989451 128.83114568 216.25 155.9375 C219.11698724 167.11170026 219.11698724 167.11170026 219.14717102 172.69223022 C219.15790398 174.06308022 219.15790398 174.06308022 219.16885376 175.46162415 C219.17154266 176.45188095 219.17423157 177.44213776 219.17700195 178.46240234 C219.18357315 179.51502762 219.19014435 180.56765289 219.19691467 181.6521759 C219.21660069 185.1300972 219.22829803 188.60797547 219.23828125 192.0859375 C219.24235678 193.27516438 219.2464323 194.46439125 219.25063133 195.6896553 C219.27146906 201.98060176 219.28578241 208.27152653 219.29516602 214.5625 C219.30624343 221.05803255 219.3406657 227.55322377 219.38033772 234.04863548 C219.40647764 239.04666787 219.4148554 244.04461843 219.41844749 249.04271317 C219.42331786 251.43728575 219.43494457 253.83185457 219.45348549 256.22636032 C219.47782679 259.57745271 219.47692095 262.92765491 219.4699707 266.27880859 C219.48918579 267.75812111 219.48918579 267.75812111 219.50878906 269.26731873 C219.46257926 275.38668281 218.55547663 278.97962 215 284 C211.899367 286.94560135 208.61453617 287.90296797 204.4375 288.5625 C199.27318793 288.29435303 194.59369717 286.19229525 189.8125 284.36328125 C184.75399928 282.47686011 179.52982199 281.30626614 174.27734375 280.08984375 C169.57782529 278.52707182 166.96314299 276.57979734 164.38041687 272.34347534 C162.80525062 268.5283021 162.59684573 265.30272721 162.65942383 261.25048828 C162.65898575 260.49858719 162.65854767 259.7466861 162.65809631 258.97200012 C162.66017435 256.50450011 162.68345798 254.03769275 162.70703125 251.5703125 C162.71263073 249.85253267 162.71689916 248.13474802 162.71989441 246.41696167 C162.73131553 241.90908439 162.76075899 237.40149988 162.79400635 232.89373779 C162.82476632 228.28857381 162.83841239 223.68336224 162.85351562 219.078125 C162.88563147 210.05195513 162.93679458 201.02600197 163 192 C162.28111603 192.41479111 161.56223206 192.82958221 160.82156372 193.25694275 C157.48783643 195.18044982 154.1540845 197.10391417 150.8203125 199.02734375 C149.92223562 199.54549306 149.92223562 199.54549306 149.00601578 200.07411003 C142.54400814 203.80233262 136.08182778 207.53024968 129.6171875 211.25390625 C119.43597787 217.1194454 109.26710743 223.00457757 99.125 228.9375 C89.85500223 234.35921178 80.54168248 239.70204915 71.21154785 245.01922607 C62.09885859 250.21378928 53.0211522 255.46545746 43.96826172 260.76367188 C35.30242125 265.83310889 26.60706716 270.85036514 17.90185547 275.85180664 C16.88494629 276.43696045 15.86803711 277.02211426 14.8203125 277.625 C13.93617676 278.13289063 13.05204102 278.64078125 12.14111328 279.1640625 C11.1045459 279.76992188 10.06797852 280.37578125 9 281 C8.19227772 281.28674843 7.38455544 281.57349686 6.55235672 281.86893463 C3.36447649 283.2304059 1.37930149 284.45637096 -1 287 C-2.57835205 292.86576838 -2.38936244 298.67705128 -2.32568359 304.71679688 C-2.34251591 306.54720227 -2.36356887 308.377573 -2.38851929 310.20788574 C-2.44264415 315.17586852 -2.43320578 320.14184362 -2.40911818 325.10999107 C-2.39484439 329.26457438 -2.41186304 333.41878751 -2.42892897 337.57334185 C-2.46884863 347.38452017 -2.45768995 357.19472433 -2.41357422 367.00585938 C-2.36894174 377.10293529 -2.40391745 387.19744751 -2.47967279 397.29428053 C-2.54232845 405.97924686 -2.55791414 414.66342346 -2.53576529 423.34858751 C-2.52283754 428.52838683 -2.52656204 433.70671091 -2.5744133 438.88633728 C-2.61719833 443.76641865 -2.60061937 448.64292105 -2.54022598 453.52278137 C-2.5276603 455.30359427 -2.53507803 457.08469038 -2.56504822 458.86529541 C-2.73474932 469.84676541 -1.26874136 476.46129384 6.42347586 484.58181715 C7.92535584 486.08153288 9.457666 487.54211267 11 489 C12.4636151 490.49999617 13.9252882 492.0018973 15.3828125 493.5078125 C16.62472631 494.71918745 17.8718884 495.9252123 19.125 497.125 C20.40307816 498.35195504 21.67671245 499.58356015 22.9453125 500.8203125 C23.48687988 501.33867676 24.02844727 501.85704102 24.58642578 502.39111328 C28.26878474 506.58226105 28.63512322 510.76760617 28.4765625 516.1875 C27.60786924 521.31421431 25.11536458 523.96965354 21 527 C-1.3512744 539.7274468 -29.31952159 544.47968099 -54.3659668 537.76171875 C-56.25432119 537.20864229 -58.12777287 536.6054267 -60 536 C-61.07378906 535.66097656 -62.14757812 535.32195313 -63.25390625 534.97265625 C-77.72578065 529.88304836 -91.12900124 521.64167617 -104.2578125 513.8125 C-109.95109562 510.42159335 -115.69502493 507.11918487 -121.4375 503.8125 C-123.09761108 502.85597534 -123.09761108 502.85597534 -124.79125977 501.88012695 C-127.06237481 500.57172278 -129.33361612 499.26353774 -131.60498047 497.95556641 C-137.0716998 494.80667946 -142.53574887 491.65316736 -148 488.5 C-150.16665311 487.2499765 -152.33331979 485.99997653 -154.5 484.75 C-161 481 -161 481 -167.5 477.25 C-169.1092334 476.3216333 -169.1092334 476.3216333 -170.75097656 475.37451172 C-172.91447476 474.12628966 -175.07788643 472.87791761 -177.24121094 471.62939453 C-182.70565017 468.47594744 -188.17163645 465.32523904 -193.640625 462.1796875 C-199.05299788 459.06573046 -204.46106548 455.94444666 -209.86474609 452.81542969 C-211.95281141 451.6063615 -214.0416779 450.39867588 -216.13134766 449.19238281 C-219.11258197 447.46867185 -222.08825521 445.73573719 -225.0625 444 C-225.93616211 443.49645996 -226.80982422 442.99291992 -227.70996094 442.47412109 C-251.40388476 428.5736244 -269.2830396 406.63664504 -276.375 379.9375 C-278.14590104 372.84619628 -279.14899122 366.1951602 -279.14717102 358.88275146 C-279.15084771 358.08178173 -279.1545244 357.280812 -279.1583125 356.45557046 C-279.16929778 353.77994402 -279.17318448 351.1043565 -279.17700195 348.42871094 C-279.1832708 346.5063159 -279.18991797 344.58392207 -279.19691467 342.66152954 C-279.21791802 336.35248654 -279.22831775 330.04344343 -279.23828125 323.734375 C-279.24233105 321.55611407 -279.24644803 319.37785327 -279.25063133 317.19959259 C-279.2696796 306.95761847 -279.28390799 296.71565151 -279.2922433 286.47366309 C-279.30199634 274.68659263 -279.32826684 262.89971093 -279.36874419 251.1127069 C-279.39901576 241.98116841 -279.41372284 232.84968367 -279.41702431 223.71809602 C-279.41936338 218.27482609 -279.42817302 212.83175786 -279.45348549 207.38854218 C-279.47696327 202.25681883 -279.48092117 197.12542716 -279.47072411 191.99366379 C-279.47023329 190.12419143 -279.47641725 188.25470163 -279.49028015 186.38528061 C-279.69479597 157.13669429 -270.484773 132.1712116 -250 111 C-249.36191406 110.26523438 -248.72382813 109.53046875 -248.06640625 108.7734375 C-240.99746697 100.97417896 -232.0205372 96.20100148 -223 91 C-220.98820024 89.83086856 -218.97648525 88.66159123 -216.96484375 87.4921875 C-211.44512201 84.29231207 -205.91354066 81.1134484 -200.37890625 77.93945312 C-194.91375798 74.8025212 -189.45722785 71.65068351 -184 68.5 C-181.83337671 67.24992481 -179.66670999 65.99992489 -177.5 64.75 C-176.4275 64.13125 -175.355 63.5125 -174.25 62.875 C-156.375 52.5625 -156.375 52.5625 -138.5 42.25 C-137.42669434 41.6307666 -136.35338867 41.0115332 -135.24755859 40.37353516 C-133.08909502 39.12830516 -130.93056677 37.88318728 -128.77197266 36.63818359 C-123.22925259 33.44113663 -117.68779992 30.24192405 -112.1484375 27.0390625 C-106.71339679 23.89713026 -101.2752307 20.76069564 -95.83349609 17.63037109 C-94.06222191 16.61119403 -92.29160376 15.590875 -90.52197266 14.56884766 C-76.71882078 6.60652658 -63.61177269 0.36758371 -48 -3 C-46.8258252 -3.26369385 -46.8258252 -3.26369385 -45.62792969 -3.53271484 C-30.8241101 -6.16505512 -14.21323151 -4.76605254 0 0 Z M-67 66 C-68.83430777 67.06827112 -70.66895545 68.13595877 -72.50390625 69.203125 C-75.47504173 70.93334353 -78.44475326 72.66586374 -81.41137695 74.40380859 C-89.24321901 78.99096893 -97.11356811 83.50771499 -105 88 C-113.69418741 92.95348205 -122.36503119 97.94369473 -131 103 C-139.63498599 108.05631532 -148.3064474 113.04538592 -157 118 C-166.22607319 123.26123883 -175.44006881 128.54217328 -184.625 133.875 C-185.64464844 134.46410156 -186.66429687 135.05320312 -187.71484375 135.66015625 C-189.11283203 136.47419922 -189.11283203 136.47419922 -190.5390625 137.3046875 C-191.35584473 137.77890137 -192.17262695 138.25311523 -193.01416016 138.74169922 C-195.12113696 139.97525217 -195.12113696 139.97525217 -197 142 C-196.42894531 142.32049316 -195.85789062 142.64098633 -195.26953125 142.97119141 C-183.18625718 149.75962857 -171.15439352 156.62688908 -159.19287109 163.62768555 C-151.85171455 167.92352092 -144.49422371 172.18999584 -137.125 176.4375 C-135.50718628 177.37009644 -135.50718628 177.37009644 -133.85668945 178.3215332 C-130.57139224 180.21481752 -127.28576011 182.10751917 -124 184 C-110.33099828 191.87285826 -96.6725096 199.76206097 -83.05395508 207.72192383 C-74.47855396 212.73042143 -65.88273632 217.70328141 -57.26489258 222.63842773 C-52.38497769 225.43856142 -47.53294852 228.26235156 -42.7578125 231.23828125 C-41.58496704 231.96096191 -41.58496704 231.96096191 -40.38842773 232.69824219 C-38.96933008 233.57787809 -37.55911459 234.47208952 -36.16040039 235.38378906 C-34.11573818 236.70179285 -34.11573818 236.70179285 -31 238 C-27.29328776 236.86367188 -24.01224735 234.98604775 -20.640625 233.09375 C-19.61654541 232.52019775 -18.59246582 231.94664551 -17.53735352 231.35571289 C-16.45252686 230.74332764 -15.3677002 230.13094238 -14.25 229.5 C-13.12327881 228.86634521 -11.99655762 228.23269043 -10.83569336 227.57983398 C-4.04626123 223.75080572 2.70747314 219.86903332 9.41088867 215.89160156 C15.76386647 212.12384767 22.16119885 208.4349457 28.5625 204.75 C37.05656299 199.85854676 45.5376557 194.94612699 54 190 C65.53698907 183.25876403 77.10851869 176.57833025 88.68701172 169.90869141 C94.27171084 166.69121331 99.85465015 163.4706855 105.4375 160.25 C106.5090332 159.63189453 107.58056641 159.01378906 108.68457031 158.37695312 C118.128856 152.92799198 127.56618533 147.46706609 137 142 C133.76733025 139.3091852 130.57222803 137.06115192 126.88671875 135.0390625 C125.89889404 134.49266113 124.91106934 133.94625977 123.89331055 133.38330078 C122.83539307 132.80306152 121.77747559 132.22282227 120.6875 131.625 C112.13093201 126.88439182 103.62331966 122.07739997 95.1875 117.125 C86.49166404 112.02384559 77.7599369 106.98991507 69 102 C60.3058175 97.04650505 51.63506926 92.05613629 43 87 C31.84830641 80.47265951 20.64400817 74.04086437 9.41015625 67.65625 C5.60969138 65.49566988 1.82257539 63.31723905 -1.94140625 61.09375 C-26.13545852 46.88209082 -44.05955813 52.52766453 -67 66 Z M-223 192 C-223.09362086 213.67991793 -223.16406601 235.35980233 -223.20724869 257.03988171 C-223.22783596 267.10730451 -223.25588292 277.1746014 -223.30175781 287.24194336 C-223.34174333 296.02106751 -223.36746066 304.80010041 -223.37635398 313.5793131 C-223.38154896 318.22385511 -223.39367832 322.86813619 -223.42292023 327.51259422 C-223.45027487 331.89321156 -223.45840493 336.27346299 -223.45243073 340.65415764 C-223.45352207 342.25321193 -223.46135578 343.85227975 -223.4768219 345.45125961 C-223.61633012 360.63206592 -220.8850895 373.07739872 -210.625 384.6875 C-203.69962361 390.78842682 -196.14059921 395.39982304 -188.125 399.9375 C-186.38838923 400.92984901 -184.65178313 401.92220632 -182.91546631 402.91506958 C-181.12456461 403.9383062 -179.3323964 404.95929616 -177.54003906 405.97998047 C-172.01329796 409.13005296 -166.50787331 412.31709603 -161 415.5 C-158.83604619 416.74888627 -156.67198336 417.99758365 -154.5078125 419.24609375 C-153.43563477 419.86468262 -152.36345703 420.48327148 -151.25878906 421.12060547 C-147.98300434 423.00980166 -144.70644107 424.89764109 -141.4296875 426.78515625 C-129.95574831 433.39633074 -118.49792415 440.03357053 -107.06494141 446.71533203 C-98.4210387 451.76343976 -89.75307087 456.76916794 -81.078125 461.76367188 C-80.0675 462.34568359 -79.056875 462.92769531 -78.015625 463.52734375 C-77.03142578 464.09308105 -76.04722656 464.65881836 -75.03320312 465.24169922 C-72.89470647 466.48135254 -70.76386024 467.73424978 -68.63867188 468.99658203 C-67.55650391 469.63837402 -66.47433594 470.28016602 -65.359375 470.94140625 C-64.37936523 471.52736572 -63.39935547 472.1133252 -62.38964844 472.71704102 C-60.15836104 474.15767351 -60.15836104 474.15767351 -58 474 C-57.78980422 449.72204873 -57.63107305 425.44423371 -57.53369045 401.16555595 C-57.48727297 389.8926134 -57.42398515 378.62023604 -57.32104492 367.34765625 C-57.23136972 357.52299823 -57.17328325 347.69874948 -57.15320355 337.87369359 C-57.14146464 332.67061969 -57.11385973 327.46871667 -57.04842949 322.26601791 C-56.98734017 317.36881458 -56.96849474 312.47326419 -56.98203087 307.57571602 C-56.97955471 305.77853091 -56.96164785 303.98129059 -56.92715073 302.18443489 C-56.38891915 292.82615501 -56.38891915 292.82615501 -59.96910191 284.6325798 C-62.2739779 283.06587975 -64.40709628 281.99928239 -67 281 C-67.96881104 280.42443359 -68.93762207 279.84886719 -69.93579102 279.25585938 C-70.78326904 278.78986328 -71.63074707 278.32386719 -72.50390625 277.84375 C-73.47900146 277.30371338 -74.45409668 276.76367676 -75.45874023 276.20727539 C-76.48298096 275.64387451 -77.50722168 275.08047363 -78.5625 274.5 C-87.07435918 269.77594016 -95.53876112 264.98498361 -103.9375 260.0625 C-112.23387296 255.20075324 -120.54343137 250.36373238 -128.875 245.5625 C-130.49523071 244.62869507 -130.49523071 244.62869507 -132.14819336 243.67602539 C-134.33796334 242.41423174 -136.52782355 241.15259466 -138.71777344 239.89111328 C-144.14659942 236.76319852 -149.57319281 233.63141552 -155 230.5 C-157.16665583 229.24998121 -159.3333225 227.99998122 -161.5 226.75 C-174.5 219.25 -174.5 219.25 -177.75561523 217.37158203 C-179.9033582 216.13261766 -182.05130455 214.89400576 -184.19946289 213.65576172 C-189.29179437 210.71985895 -194.38191695 207.78030245 -199.4649353 204.82830811 C-201.87434008 203.42931947 -204.2849009 202.03232971 -206.69555664 200.63549805 C-208.40298982 199.64501929 -210.10873972 198.6516406 -211.81445312 197.65820312 C-212.84376953 197.06201172 -213.87308594 196.46582031 -214.93359375 195.8515625 C-215.84165771 195.32385254 -216.74972168 194.79614258 -217.68530273 194.25244141 C-220.04741501 192.8878949 -220.04741501 192.8878949 -223 192 Z " fill="#00D5C0" transform="translate(360,85)"/>
<path d="M0 0 C29.101875 -0.04125 58.20375 -0.0825 88.1875 -0.125 C97.34137451 -0.14320801 106.49524902 -0.16141602 115.92651367 -0.18017578 C127.19396973 -0.18920898 127.19396973 -0.18920898 132.48603821 -0.19088745 C136.14430723 -0.19273401 139.80251689 -0.20016125 143.46076965 -0.21115112 C223.08149833 -0.43946161 223.08149833 -0.43946161 250.8515625 25.73046875 C270.54085227 46.52951849 277.84350281 73.81617255 277.24609375 102.0390625 C276.37725442 124.49056251 267.59601752 144.8668152 251.51660156 160.60400391 C242.03171145 169.33462234 228.85972172 177.07132338 216 179 C221.16571258 188.13452312 226.46609456 197.16895421 231.9375 206.125 C232.67598384 207.33711618 233.41425989 208.54935897 234.15234375 209.76171875 C235.67742941 212.26643494 237.20338382 214.77061854 238.72998047 217.27441406 C241.97634103 222.60037957 245.21167115 227.93303633 248.4473877 233.26547241 C250.2105009 236.17078568 251.97444798 239.0755926 253.73828125 241.98046875 C256.2472443 246.11276172 258.75591392 250.24523263 261.26423645 254.37791443 C262.35326204 256.17214558 263.44237303 257.96632487 264.53149414 259.76049805 C265.95418847 262.10421011 267.37650755 264.44814931 268.79858398 266.79223633 C272.24952908 272.4792661 275.70781062 278.1616653 279.1796875 283.8359375 C279.83493408 284.90803467 280.49018066 285.98013184 281.1652832 287.0847168 C282.40412627 289.11076963 283.64476958 291.13572309 284.88745117 293.15942383 C285.43119385 294.04911865 285.97493652 294.93881348 286.53515625 295.85546875 C287.013479 296.63559326 287.49180176 297.41571777 287.98461914 298.21948242 C289 300 289 300 289 301 C253.36 301 217.72 301 181 301 C177.04 293.74 173.08 286.48 169 279 C166.80336649 275.09617477 164.6016391 271.1987598 162.375 267.3125 C157.96381784 259.562376 153.71056786 251.75028479 149.59057617 243.84204102 C146.47292708 237.86701958 143.32279004 231.90860951 139.92504883 226.08691406 C136.88511637 220.8400494 134.46594538 215.52776763 132.25317383 209.87963867 C129.72957174 204.92485997 126.24471115 200.51555634 123 196 C114.42 195.67 105.84 195.34 97 195 C97 229.98 97 264.96 97 301 C64.99 301 32.98 301 0 301 C0 201.67 0 102.34 0 0 Z M97 64 C97 86.77 97 109.54 97 133 C108.6634375 133.0928125 108.6634375 133.0928125 120.5625 133.1875 C122.98408447 133.21481201 125.40566895 133.24212402 127.90063477 133.27026367 C151.58842932 133.75206479 151.58842932 133.75206479 171.9921875 123.14453125 C179.8371353 114.72992956 181.38372111 105.98693805 181.27734375 94.7109375 C180.69231549 86.88309456 178.39279299 79.18048733 172.80859375 73.45703125 C158.34489429 61.80485004 139.06884261 63.6259116 121.6875 63.8125 C109.4671875 63.9053125 109.4671875 63.9053125 97 64 Z " fill="#FFFFFF" transform="translate(810,218)"/>
<path d="M0 0 C29.04 0 58.08 0 88 0 C88 99.33 88 198.66 88 301 C59.95 301 31.9 301 3 301 C2.67 297.04 2.34 293.08 2 289 C0.96875 289.845625 -0.0625 290.69125 -1.125 291.5625 C-19.41551871 305.1359902 -43.00624118 309.38033929 -65.35546875 306.50390625 C-84.98402381 303.53456145 -102.08243294 296.22116503 -117 283 C-117.61101562 282.45988281 -118.22203125 281.91976563 -118.8515625 281.36328125 C-140.45027569 260.99737133 -150.90529636 228.32580275 -152.16113281 199.2722168 C-152.20721236 195.07710278 -152.24666257 190.88287164 -152.25 186.6875 C-152.25067474 185.92744659 -152.25134949 185.16739319 -152.25204468 184.38430786 C-152.23554423 172.68271789 -151.74365956 161.42419515 -149 150 C-148.83902832 149.29214355 -148.67805664 148.58428711 -148.51220703 147.85498047 C-142.79964475 123.45174851 -127.83935617 100.42234801 -106.39697266 87.07275391 C-84.506852 74.05011781 -59.01833597 70.34524142 -34 75.1875 C-31.98377403 75.73508578 -29.98097056 76.33609263 -28 77 C-26.99839844 77.32871094 -25.99679687 77.65742188 -24.96484375 77.99609375 C-16.31177661 81.2228504 -7.57110794 86.42889206 -1 93 C-0.67 62.31 -0.34 31.62 0 0 Z M-54.6875 147.74609375 C-66.66964378 162.15462165 -66.08447438 184.37706175 -64.72265625 202.09375 C-63.25483305 215.62568196 -59.09615567 228.44824665 -48.39453125 237.3828125 C-41.52399142 242.0229487 -33.84868471 243.87370795 -25.66015625 242.66015625 C-15.63679959 240.17271532 -9.46178936 234.52212634 -3.72265625 226.1328125 C2.36098348 215.43478943 2.54784468 202.07096442 2.4375 190.125 C2.43445862 189.42477722 2.43141724 188.72455444 2.42828369 188.00311279 C2.32963343 172.64217053 1.10028635 157.74898293 -9.91796875 145.9453125 C-16.20450926 140.08435984 -22.61360105 137.42246266 -31.1875 136.75 C-40.82902319 137.38223103 -48.00331822 140.82982233 -54.6875 147.74609375 Z " fill="#FFFFFF" transform="translate(1785,218)"/>
<path d="M0 0 C17.02999466 15.01622887 23.78570033 35.12943686 25.67578125 57.359375 C25.91727328 62.61776471 25.93128421 67.86637992 25.90283203 73.12890625 C25.90226587 74.6287841 25.90258845 76.1286625 25.90371704 77.62854004 C25.90428359 81.6440438 25.89264441 85.65942453 25.87856913 89.67490005 C25.8659434 93.89222821 25.86488204 98.10956015 25.86251831 102.3269043 C25.85633795 110.28790767 25.83997449 118.24885517 25.81981933 126.2098341 C25.79313932 136.98526371 25.78245981 147.76070894 25.7708149 158.53616333 C25.75209083 175.47727562 25.71222244 192.41827008 25.67578125 209.359375 C-3.69421875 209.359375 -33.06421875 209.359375 -63.32421875 209.359375 C-63.36289063 195.13199219 -63.36289063 195.13199219 -63.40234375 180.6171875 C-63.42751573 174.60154196 -63.45368902 168.58592826 -63.484375 162.5703125 C-63.5328751 153.02604405 -63.57733441 143.48188151 -63.59521484 133.9375 C-63.60825768 126.98543507 -63.63528908 120.0335862 -63.67883182 113.08164299 C-63.70138787 109.40360956 -63.71713298 105.72584203 -63.7161026 102.04773331 C-63.71521276 97.93272342 -63.74556542 93.81849305 -63.77832031 89.70361328 C-63.77328995 88.49591782 -63.76825958 87.28822235 -63.76307678 86.04393005 C-63.85922114 78.21552419 -64.66469272 70.60328605 -69.96808243 64.45300484 C-77.01222651 57.73782192 -84.61287308 56.91773225 -93.95776367 57.00561523 C-101.36410638 57.23429146 -107.3379388 58.44364824 -113.63671875 62.484375 C-123.48670033 73.0215646 -123.6419011 86.24471678 -123.55126953 100.03442383 C-123.55156158 101.22625778 -123.55185364 102.41809174 -123.55215454 103.64604187 C-123.55077518 107.53624068 -123.5352802 111.42624142 -123.51953125 115.31640625 C-123.51467535 118.03309522 -123.51285299 120.74978401 -123.51095581 123.46647644 C-123.50477605 129.85511738 -123.48841346 136.24368866 -123.46825683 142.63229913 C-123.4435775 150.63050369 -123.43273213 158.62871991 -123.421875 166.62695312 C-123.4024791 180.8711478 -123.36240122 195.11519082 -123.32421875 209.359375 C-152.69421875 209.359375 -182.06421875 209.359375 -212.32421875 209.359375 C-212.32421875 136.429375 -212.32421875 63.499375 -212.32421875 -11.640625 C-184.60421875 -11.640625 -156.88421875 -11.640625 -128.32421875 -11.640625 C-127.99421875 -3.060625 -127.66421875 5.519375 -127.32421875 14.359375 C-123.85921875 10.399375 -123.85921875 10.399375 -120.32421875 6.359375 C-91.61912423 -25.31857312 -32.60856885 -26.29865634 0 0 Z " fill="#FFFFFF" transform="translate(1579.32421875,309.640625)"/>
<path d="M0 0 C1.32993484 -0.00151062 1.32993484 -0.00151062 2.68673706 -0.00305176 C16.19080935 0.00731336 29.36461416 0.46150282 42.625 3.25 C43.31158691 3.38921875 43.99817383 3.5284375 44.70556641 3.671875 C58.11245117 6.49781997 71.71330702 11.83890333 82.625 20.25 C83.223125 20.68570312 83.82125 21.12140625 84.4375 21.5703125 C97.55519211 31.81850946 103.41363367 47.27191806 105.625 63.25 C106.00408706 68.24371795 106.04330114 73.20588077 106.02563477 78.21240234 C106.03139729 79.63842334 106.03848812 81.06443948 106.04678345 82.490448 C106.06173578 85.52683406 106.06768496 88.56304615 106.06625557 91.59946823 C106.06419898 96.40874507 106.08393723 101.21779224 106.10643005 106.02700806 C106.14715673 115.36074705 106.16595845 124.69446687 106.18260193 134.02827454 C106.20505226 145.93037956 106.23863917 157.83243032 106.28980106 169.73444712 C106.30962182 174.50802713 106.31929574 179.28148447 106.32075322 184.05510402 C106.3235162 187.02737483 106.33437256 189.99957838 106.34726334 192.97182083 C106.35353538 194.99170224 106.3499621 197.01160684 106.34602356 199.03149414 C106.39216273 207.26978663 106.63774598 215.28091565 110.6875 222.6875 C111.02910156 223.32558594 111.37070313 223.96367188 111.72265625 224.62109375 C112.02042969 225.15863281 112.31820312 225.69617188 112.625 226.25 C112.955 226.91 113.285 227.57 113.625 228.25 C84.915 228.25 56.205 228.25 26.625 228.25 C26.295 223.3 25.965 218.35 25.625 213.25 C23.335625 214.796875 23.335625 214.796875 21 216.375 C0.39391349 229.45193951 -22.61730797 233.4876968 -46.5625 233.625 C-47.23310455 233.63285522 -47.90370911 233.64071045 -48.59463501 233.64880371 C-70.64374773 233.84968222 -91.3199425 227.73807294 -107.75 212.5 C-121.3137929 197.88836044 -127.22485011 178.16217138 -126.66015625 158.49609375 C-124.88812096 138.32402083 -116.9469895 121.40645499 -101.375 108.25 C-80.60500105 92.80102801 -56.61159618 89.17923557 -31.5625 85.75 C-13.99110496 83.3319815 3.42704837 80.65603632 20.625 76.25 C21.27581077 69.22124366 19.8125827 64.01047961 15.625 58.25 C8.5396437 52.28675896 -2.16375966 52.01237565 -10.9375 52.375 C-17.86763552 53.00244869 -25.08206607 53.66054595 -30.0234375 59.046875 C-32.79178804 63.17539777 -34.2708637 67.4319507 -35.375 72.25 C-45.82090712 73.31925575 -56.26042725 73.57728724 -66.75 73.8125 C-67.64242401 73.83367889 -68.53484802 73.85485779 -69.45431519 73.87667847 C-85.76365651 74.26149682 -102.06134587 74.37308619 -118.375 74.25 C-116.29736443 53.74254805 -108.93781279 36.77810792 -92.90209961 23.26538086 C-67.05032374 2.68639847 -31.7330002 0.02504026 0 0 Z M13.61328125 128.078125 C12.38730225 128.46379639 11.16132324 128.84946777 9.89819336 129.24682617 C8.57794919 129.66450954 7.25771831 130.08223491 5.9375 130.5 C-1.97912521 132.99712578 -9.86949796 135.46701313 -17.9375 137.4375 C-26.68267125 139.70552338 -35.74355219 142.90775945 -41.3203125 150.3984375 C-43.89252551 154.91410035 -44.54217416 158.66184543 -44 163.8125 C-41.34254042 169.43404911 -37.05263662 172.88143017 -31.5625 175.6875 C-23.00441428 177.19775042 -15.44590948 176.40149799 -7.375 173.25 C-6.56289062 172.93289063 -5.75078125 172.61578125 -4.9140625 172.2890625 C5.74697039 167.54708888 13.80845885 159.86501493 18.54296875 149.1953125 C21.35217505 141.5485921 21.93525963 134.35122355 21.625 126.25 C18.74688521 126.25 16.35660898 127.20839146 13.61328125 128.078125 Z " fill="#FFFFFF" transform="translate(2814.375,290.75)"/>
<path d="M0 0 C0.76957031 0.52851563 1.53914063 1.05703125 2.33203125 1.6015625 C27.01809378 19.66019563 40.41359985 45.93346039 45.38671875 75.6640625 C47.278071 89.03604338 47 101.25659562 47 115 C-3.82 115 -54.64 115 -107 115 C-106.67 115.66 -106.34 116.32 -106 117 C-105.73233985 119.16455596 -105.48568162 121.33172912 -105.25 123.5 C-103.90600621 133.21657731 -100.17409759 142.3139513 -92.15234375 148.40234375 C-81.93417752 155.19476639 -69.5589454 155.52545797 -57.734375 153.41796875 C-46.50555727 149.90495292 -38.93144792 140.75655781 -33 131 C-32.31445801 129.67627254 -31.64066801 128.34601884 -31 127 C-26.63377004 127.67750047 -22.76779229 129.2056569 -18.7265625 130.921875 C-18.01775436 131.21839966 -17.30894623 131.51492432 -16.57865906 131.82043457 C-14.25876881 132.79226071 -11.9417729 133.77076785 -9.625 134.75 C-8.01990235 135.42575738 -6.41467633 136.1012099 -4.80932617 136.77636719 C-2.34106603 137.81443907 0.1270453 138.85284715 2.59437561 139.89312744 C8.12851076 142.2237967 13.67831509 144.51299832 19.23828125 146.78125 C21.37313597 147.6572881 23.50752124 148.53445706 25.6416626 149.41223145 C27.00273184 149.96958806 28.36532532 150.52323725 29.72943115 151.07312012 C31.61924851 151.83564843 33.50316242 152.61275956 35.38671875 153.390625 C36.98326294 154.0407959 36.98326294 154.0407959 38.61206055 154.70410156 C41 156 41 156 42 159 C33.58335818 175.34394399 17.99530682 187.97035216 3 198 C2.12988281 198.59296875 1.25976562 199.1859375 0.36328125 199.796875 C-28.49878152 218.30675988 -69.98038898 222.82757177 -103.15039062 216.40844727 C-105.10946826 215.97900486 -107.05522198 215.49014731 -109 215 C-109.66128906 214.83371094 -110.32257813 214.66742187 -111.00390625 214.49609375 C-125.65799125 210.68433753 -140.11975813 204.47387709 -152 195 C-153.02480469 194.21109375 -154.04960938 193.4221875 -155.10546875 192.609375 C-179.29553121 173.48750234 -192.91742103 143.58160051 -196.48217773 113.34301758 C-199.93421784 78.60921771 -192.08382226 45.35571216 -170 18 C-169.49984375 17.34644531 -168.9996875 16.69289063 -168.484375 16.01953125 C-151.25186419 -5.62014468 -121.14962415 -17.22815619 -94.42236328 -20.66601562 C-61.31031574 -23.89738109 -27.80128509 -19.43313794 0 0 Z M-99.4609375 48.6875 C-103.39540589 54.59918855 -104.8467186 61.08031161 -106 68 C-85.21 68 -64.42 68 -43 68 C-44.07163768 57.28362316 -45.60858862 49.03179232 -53.52734375 41.55859375 C-68.36862947 29.86016854 -88.05899172 34.94268865 -99.4609375 48.6875 Z " fill="#FFFFFF" transform="translate(1297,310)"/>
<path d="M0 0 C23.1698455 20.29378667 35.70097198 46.00952287 39.66015625 76.26953125 C39.79292969 77.27113281 39.92570312 78.27273438 40.0625 79.3046875 C41.14312113 89.5927928 40.66015625 99.9363063 40.66015625 110.26953125 C-10.15984375 110.26953125 -60.97984375 110.26953125 -113.33984375 110.26953125 C-110.1684269 129.38706224 -110.1684269 129.38706224 -98.5703125 143.8671875 C-88.12045776 150.43723628 -76.00966766 150.84302093 -64.08984375 148.6796875 C-52.85033064 145.21523531 -45.26387891 136.01389591 -39.33984375 126.26953125 C-38.65430176 124.94580379 -37.98051176 123.61555009 -37.33984375 122.26953125 C-33.39388044 122.91789705 -30.01150583 124.11982404 -26.3359375 125.68359375 C-25.13662598 126.19035645 -23.93731445 126.69711914 -22.70166016 127.21923828 C-21.39345434 127.77743415 -20.08535156 128.33587156 -18.77734375 128.89453125 C-16.00339515 130.07348255 -13.22833932 131.24981299 -10.453125 132.42578125 C-9.72708069 132.73395782 -9.00103638 133.0421344 -8.25299072 133.35964966 C-2.62765394 135.74133667 3.02177756 138.06021596 8.6796875 140.36328125 C11.15546462 141.37599954 13.63087513 142.38960866 16.10617065 143.40350342 C17.72470338 144.06386591 19.34476673 144.72048928 20.96633911 145.37335205 C23.24085482 146.28979661 25.50948364 147.21957511 27.77734375 148.15234375 C28.46129715 148.42373169 29.14525055 148.69511963 29.84992981 148.97473145 C31.49023582 149.65696228 33.08169645 150.45435803 34.66015625 151.26953125 C34.99015625 152.25953125 35.32015625 153.24953125 35.66015625 154.26953125 C34.3976497 156.53216523 33.12216934 158.5042881 31.59765625 160.58203125 C31.14865967 161.19796143 30.69966309 161.8138916 30.23706055 162.44848633 C8.97100514 190.76128199 -23.08697154 207.59746229 -57.83984375 212.61328125 C-92.74510018 216.7016803 -129.89856095 212.46760563 -158.33984375 190.26953125 C-158.84902344 189.8725 -159.35820313 189.47546875 -159.8828125 189.06640625 C-184.80328782 169.41415493 -198.72180335 140.54401611 -202.8359375 109.421875 C-206.45322521 76.64937599 -199.5766789 43.33520257 -179.3984375 16.82421875 C-162.31542805 -4.37556907 -140.55116924 -16.31311485 -114.33984375 -22.73046875 C-113.18613281 -23.03082031 -112.03242187 -23.33117187 -110.84375 -23.640625 C-73.76204153 -31.80087814 -29.50525351 -24.75343815 0 0 Z M-104.58984375 42.51953125 C-109.62360597 48.7191512 -111.22749523 55.48309159 -112.33984375 63.26953125 C-91.54984375 63.26953125 -70.75984375 63.26953125 -49.33984375 63.26953125 C-50.5117772 51.55019676 -52.79779024 44.20015357 -61.33984375 36.26953125 C-75.92934938 25.36783857 -93.00372071 30.26886749 -104.58984375 42.51953125 Z " fill="#FFFFFF" transform="translate(2101.33984375,314.73046875)"/>
<path d="M0 0 C69.3 0 138.6 0 210 0 C210 51 210 51 198.4375 65.6875 C191.93359375 70.76171875 191.93359375 70.76171875 188.99780273 72.69799805 C185.87399821 75.09675632 183.62463448 77.63114744 181.09242249 80.6209259 C177.16252332 85.08920196 172.88051277 89.2266423 168.65846252 93.41670227 C166.93127324 95.13094586 165.2073868 96.84845302 163.48425293 98.56677246 C159.20690193 102.83086477 154.92408241 107.08945061 150.64141846 111.34820557 C147.01102552 114.95875702 143.38276463 118.57142642 139.75721741 122.18684387 C138.0716171 123.86603635 136.38299859 125.54215076 134.69421387 127.21813965 C128.36387335 133.51377362 128.36387335 133.51377362 122.37304688 140.13085938 C118.15288809 144.97170162 113.54111736 149.45888264 109 154 C158.5 154.495 158.5 154.495 209 155 C209 176.78 209 198.56 209 221 C135.74 221 62.48 221 -13 221 C-13 204.83 -13 188.66 -13 172 C-10.69 169.69 -8.38 167.38 -6 165 C-4.89683849 163.76631905 -3.80747798 162.51980215 -2.74609375 161.25 C1.40918191 156.44045016 5.90514214 151.98174831 10.41555786 147.50927734 C11.97473727 145.9630726 13.53058621 144.41358104 15.08569336 142.86328125 C18.94565803 139.01655775 22.81109902 135.17535284 26.6763916 131.33398438 C29.95449442 128.07574304 33.23044992 124.8153701 36.50369263 121.55224609 C38.02309466 120.03923948 39.54551703 118.5293203 41.06811523 117.01953125 C45.66071305 112.45097905 50.10735847 107.82390978 54.32302856 102.90405273 C57.43049524 99.37579918 60.78564617 96.09226136 64.12109375 92.78125 C64.7824231 92.12092773 65.44375244 91.46060547 66.12512207 90.78027344 C68.55982064 88.35074586 70.99890767 85.92561926 73.4375 83.5 C78.903125 78.055 84.36875 72.61 90 67 C60.3 66.67 30.6 66.34 0 66 C0 44.22 0 22.44 0 0 Z " fill="#FFFFFF" transform="translate(2466,298)"/>
<path d="M0 0 C0 24.75 0 49.5 0 75 C-8.58 75 -17.16 75 -26 75 C-40.90030376 77.05521431 -52.89845772 80.46538371 -62.8125 92.25 C-70.10000534 102.12714277 -70.1379875 114.29109734 -70.20532227 126.09765625 C-70.21522186 127.18147079 -70.22512146 128.26528534 -70.23532104 129.38194275 C-70.26675136 132.94210675 -70.29162006 136.50228407 -70.31640625 140.0625 C-70.33699174 142.53971694 -70.35798862 145.0169305 -70.37937927 147.49414062 C-70.43443519 153.99763233 -70.48391685 160.50115486 -70.53222656 167.00469971 C-70.59142037 174.81673039 -70.65755725 182.62870467 -70.72252655 190.44068909 C-70.82032856 202.29375834 -70.9093266 214.14686442 -71 226 C-100.04 226 -129.08 226 -159 226 C-159 153.07 -159 80.14 -159 5 C-130.95 5 -102.9 5 -74 5 C-74 10.94 -74 16.88 -74 23 C-72.185 21.515 -70.37 20.03 -68.5 18.5 C-47.78553392 2.33248251 -25.69602487 0 0 0 Z " fill="#FFFFFF" transform="translate(2324,293)"/>
<path d="M0 0 C29.37 0 58.74 0 89 0 C89 72.93 89 145.86 89 221 C59.63 221 30.26 221 0 221 C0 148.07 0 75.14 0 0 Z " fill="#FFFFFF" transform="translate(2955,298)"/>
<path d="M0 0 C29.37 0 58.74 0 89 0 C89 72.93 89 145.86 89 221 C59.63 221 30.26 221 0 221 C0 148.07 0 75.14 0 0 Z " fill="#FFFFFF" transform="translate(2343,298)"/>
<path d="M0 0 C2.5625 0.5 2.5625 0.5 4.43579102 2.33911133 C7.43994161 6.80412541 9.21577749 11.57035905 11.15234375 16.57421875 C11.57874649 17.65322952 12.00514923 18.7322403 12.44447327 19.84394836 C13.80456967 23.28861689 15.15306033 26.73766793 16.5 30.1875 C17.84479385 33.61888477 19.19217516 37.04919349 20.54481506 40.47749329 C21.38454424 42.60706769 22.21966141 44.73846873 23.04930115 46.87199402 C27.05654295 57.05910623 31.36609037 66.18716624 38.5625 74.5 C39.14644531 75.17933594 39.73039063 75.85867188 40.33203125 76.55859375 C53.86103736 91.16992035 74.35060225 96.82547391 92.43635559 103.75526428 C95.00586718 104.74078958 97.57289936 105.73270218 100.1401062 106.72421265 C101.96497883 107.42406904 103.79507867 108.1102465 105.62524414 108.79614258 C106.73762451 109.22306396 107.85000488 109.64998535 108.99609375 110.08984375 C109.97634521 110.45972412 110.95659668 110.82960449 111.96655273 111.21069336 C114.81190433 112.62386949 116.54629466 114.05370219 118.5625 116.5 C118.9375 119.4375 118.9375 119.4375 117.5625 122.5 C108.08482926 129.0699777 95.30282626 132.33944886 84.58642578 136.41064453 C62.71419156 144.4968235 62.71419156 144.4968235 43.5625 157.5 C42.96179688 158.00789062 42.36109375 158.51578125 41.7421875 159.0390625 C32.44379883 167.50351496 27.28308065 179.66859705 22.75 191.125 C22.24476921 192.37402052 21.73831431 193.62254649 21.23071289 194.87060547 C19.66013848 198.7413162 18.10977662 202.61992871 16.5625 206.5 C15.02882312 210.34208296 13.49349224 214.18345272 11.94848633 218.02099609 C11.00032134 220.38014181 10.05974649 222.74235573 9.12768555 225.10791016 C8.70269775 226.16800293 8.27770996 227.2280957 7.83984375 228.3203125 C7.47109131 229.25117676 7.10233887 230.18204102 6.72241211 231.14111328 C5.56361186 233.49773883 4.63558748 234.90300511 2.5625 236.5 C-0.76953125 236.98046875 -0.76953125 236.98046875 -4.4375 235.5 C-6.97683857 231.54982579 -8.49762675 227.19500278 -10.125 222.8125 C-10.63484082 221.50861384 -11.1476681 220.20589186 -11.66333008 218.90429688 C-13.01432482 215.47634835 -14.33334103 212.03710515 -15.64208984 208.59283447 C-17.69582051 203.18918418 -19.77603436 197.79625397 -21.88369751 192.41342163 C-22.60101233 190.56191607 -23.29542898 188.70158956 -23.98901367 186.84106445 C-31.39069172 167.72788724 -44.21935668 153.55798778 -62.86914062 144.90844727 C-66.41325841 143.44201087 -69.97763723 142.05119282 -73.5625 140.6875 C-74.85840136 140.18054221 -76.15363774 139.67188167 -77.44824219 139.16162109 C-82.76022282 137.07203935 -88.08352035 135.01285808 -93.41894531 132.98388672 C-95.97634345 132.0113016 -98.52910871 131.02806588 -101.07763672 130.0324707 C-103.43895509 129.11180248 -105.80764771 128.20977418 -108.18408203 127.32885742 C-109.24224121 126.9135376 -110.30040039 126.49821777 -111.390625 126.0703125 C-112.32036133 125.71727051 -113.25009766 125.36422852 -114.20800781 125.00048828 C-117.22280235 122.97147742 -117.605272 120.95178734 -118.4375 117.5 C-113.9757905 112.00504608 -108.44924695 110.12707676 -101.9609375 107.62890625 C-100.83990631 107.18409409 -99.71887512 106.73928192 -98.56387329 106.2809906 C-94.98479478 104.86251993 -91.39929682 103.46132667 -87.8125 102.0625 C-84.24798513 100.66524302 -80.68512878 99.2641206 -77.12539673 97.85472107 C-74.9144768 96.98004569 -72.700742 96.11243866 -70.48373413 95.25331116 C-58.86613647 90.67206527 -49.29817008 85.36067008 -40.4375 76.5 C-39.7878125 75.8503125 -39.138125 75.200625 -38.46875 74.53125 C-30.36189887 65.85549704 -26.08386365 54.73418701 -21.6875 43.875 C-21.16989367 42.6119199 -20.65173658 41.34906538 -20.13305664 40.08642578 C-17.55520645 33.79497171 -15.02896019 27.48453919 -12.54296875 21.15625 C-12.09211914 20.01236816 -11.64126953 18.86848633 -11.17675781 17.68994141 C-10.3259524 15.52335553 -9.48252737 13.35385303 -8.64746094 11.18115234 C-8.26750977 10.21129395 -7.88755859 9.24143555 -7.49609375 8.2421875 C-7.16923584 7.3951123 -6.84237793 6.54803711 -6.50561523 5.67529297 C-4.91108535 2.42791895 -3.59166161 0.7367511 0 0 Z " fill="#00D0C6" transform="translate(530.4375,419.5)"/>
<path d="M0 0 C29.37 0 58.74 0 89 0 C89 19.47 89 38.94 89 59 C59.63 59 30.26 59 0 59 C0 39.53 0 20.06 0 0 Z " fill="#FFFFFF" transform="translate(2343,218)"/>
<path d="M0 0 C2.03163165 0.01866025 4.06330842 0.03289063 6.09500122 0.0428772 C11.43258758 0.08099002 16.7674357 0.17915346 22.10394287 0.28991699 C27.55329339 0.39236937 33.00308819 0.43791872 38.453125 0.48828125 C49.13922146 0.5954055 59.82328896 0.76598721 70.5078125 0.9765625 C68.69053424 4.97837386 66.12329469 7.25118376 62.7578125 9.9765625 C61.57760522 10.95249676 60.39793615 11.92908219 59.21875 12.90625 C58.60741211 13.40995117 57.99607422 13.91365234 57.36621094 14.43261719 C54.33734995 16.94897516 51.36314208 19.52810948 48.3828125 22.1015625 C44.32221707 25.5954857 40.23259339 29.04107339 36.0703125 32.4140625 C30.97523648 36.54865291 26.02981024 40.84071105 21.08569336 45.15307617 C16.29407596 49.32224552 11.42442464 53.37434502 6.484375 57.3671875 C4.62542612 58.82499426 4.62542612 58.82499426 3.5078125 59.9765625 C1.7585253 60.07021256 0.00544996 60.09400688 -1.74633789 60.09008789 C-2.86742447 60.09001236 -3.98851105 60.08993683 -5.14356995 60.08985901 C-6.97322548 60.08211708 -6.97322548 60.08211708 -8.83984375 60.07421875 C-10.08140732 60.0728038 -11.32297089 60.07138885 -12.60215759 60.06993103 C-15.90824241 60.06526841 -19.21425896 60.05627747 -22.52032471 60.04522705 C-25.891799 60.03501077 -29.26328033 60.03043295 -32.63476562 60.02539062 C-39.25392525 60.01433645 -45.87305243 59.99757986 -52.4921875 59.9765625 C-51.33142137 56.25624371 -50.0665146 52.93035636 -48.09375 49.5703125 C-47.383396 48.3469519 -47.383396 48.3469519 -46.65869141 47.09887695 C-46.14999512 46.23351318 -45.64129883 45.36814941 -45.1171875 44.4765625 C-40.15783824 35.93125717 -35.35774208 27.31493256 -30.67822266 18.61328125 C-29.7810318 16.95249035 -28.86248781 15.30296174 -27.91775513 13.66874695 C-26.43269978 11.04912708 -26.43269978 11.04912708 -25.62774658 8.33015442 C-21.25298945 -2.75741989 -10.04749558 -0.26995716 0 0 Z " fill="#FFFFFF" transform="translate(3010.4921875,209.0234375)"/>
</svg>
